<svg width="482" height="83" viewBox="0 0 482 83" fill="none" xmlns="http://www.w3.org/2000/svg">
<circle cx="52" cy="16" r="9" fill="#D7D7D7" fill-opacity="0.3"/>
<ellipse cx="440.5" cy="22.5" rx="6.5" ry="6.5" fill="#D7D7D7" fill-opacity="0.3"/>
<ellipse cx="282.5" cy="13.5" rx="6.5" ry="6.5" fill="#D7D7D7" fill-opacity="0.3"/>
<ellipse cx="305.5" cy="69.5" rx="6.5" ry="6.5" fill="#D7D7D7" fill-opacity="0.3"/>
<ellipse cx="349.5" cy="27.5" rx="6.5" ry="6.5" fill="#D7D7D7" fill-opacity="0.3"/>
<ellipse cx="371" cy="70" rx="4" ry="4" fill="#D7D7D7" fill-opacity="0.3"/>
<ellipse cx="389" cy="38" rx="4" ry="4" fill="#D7D7D7" fill-opacity="0.3"/>
<ellipse cx="456" cy="80" rx="3" ry="3" fill="#D7D7D7" fill-opacity="0.3"/>
<circle cx="420.5" cy="54.5" r="5.5" fill="#D7D7D7" fill-opacity="0.3"/>
<circle cx="479" cy="40" r="3" fill="#D7D7D7" fill-opacity="0.3"/>
<circle cx="4.5" cy="51.4999" r="4.5" fill="#D7D7D7" fill-opacity="0.3"/>
<circle cx="52.5" cy="44.5" r="4.5" fill="#D7D7D7" fill-opacity="0.3"/>
<circle cx="227.5" cy="20.5" r="4.5" fill="#D7D7D7" fill-opacity="0.3"/>
<circle cx="107" cy="68.9999" r="3" fill="#D7D7D7" fill-opacity="0.3"/>
<ellipse cx="167.5" cy="71.5" rx="4.5" ry="4.5" fill="#D7D7D7" fill-opacity="0.3"/>
<ellipse cx="187.5" cy="2.50003" rx="2.5" ry="2.5" fill="#D7D7D7" fill-opacity="0.3"/>
<ellipse cx="255.5" cy="74.5" rx="2.5" ry="2.5" fill="#D7D7D7" fill-opacity="0.3"/>
<circle cx="175" cy="34" r="3" fill="#D7D7D7" fill-opacity="0.3"/>
<circle cx="37" cy="71.9999" r="6" fill="#D7D7D7" fill-opacity="0.3"/>
<circle cx="145.5" cy="7.49997" r="3.5" fill="#D7D7D7" fill-opacity="0.3"/>
</svg>
